<svg id="icon-left" xmlns="http://www.w3.org/2000/svg" xmlns:xlink="http://www.w3.org/1999/xlink" width="48" height="48" viewBox="0 0 48 48">
  <defs>
    <clipPath id="clip-path">
      <path id="icon_small_chevron_back" d="M12,24a2,2,0,0,1-1.414-.586l-10-10a2,2,0,0,1,0-2.828l10-10a2,2,0,0,1,2.828,2.828L4.828,12l8.586,8.586A2,2,0,0,1,12,24" fill="#889399"/>
    </clipPath>
  </defs>
  <rect id="icon_small_chevron_back_background" data-name="icon/small/chevron/back background" width="48" height="48" fill="rgba(0,0,0,0)"/>
  <path id="icon_small_chevron_back-2" data-name="icon_small_chevron_back" d="M12,24a2,2,0,0,1-1.414-.586l-10-10a2,2,0,0,1,0-2.828l10-10a2,2,0,0,1,2.828,2.828L4.828,12l8.586,8.586A2,2,0,0,1,12,24" transform="translate(14 12)" fill="#889399"/>
  <g transform="translate(14 12)" clip-path="url(#clip-path)">
    <g id="colour_icon_blue" data-name="colour/icon/blue" transform="translate(-14 -12)">
      <rect id="colour_icon_blue_background" data-name="colour/icon/blue background" width="48" height="48" fill="rgba(0,0,0,0)"/>
      <rect id="Rectangle_6" data-name="Rectangle 6" width="48" height="48" fill="#fff"/>
    </g>
  </g>
</svg>
