<?xml version="1.0" encoding="UTF-8"?>
<svg width="14px" height="16px" viewBox="0 0 14 16" version="1.1" xmlns="http://www.w3.org/2000/svg" xmlns:xlink="http://www.w3.org/1999/xlink">
    <!-- Generator: Sketch 55 (78076) - https://sketchapp.com -->
    <title>icon_location</title>
    <desc>Created with Sketch.</desc>
    <defs>
        <path d="M13.8757216,15.7100648 C13.9560056,15.6297809 14.0493756,15.5637555 14.1518274,15.5148202 C15.8779327,14.6903598 17,12.9466563 17,11 C17,8.23857625 14.7614237,6 12,6 C9.23857625,6 7,8.23857625 7,11 C7,12.9466563 8.12206728,14.6903598 9.84817259,15.5148202 C9.95062441,15.5637555 10.0439944,15.6297809 10.1242784,15.7100648 L12,17.5857864 L13.8757216,15.7100648 Z M8.82659859,17.2408122 C6.50212702,16.0574536 5,13.6639986 5,11 C5,7.13400675 8.13400675,4 12,4 C15.8659932,4 19,7.13400675 19,11 C19,13.6639986 17.497873,16.0574536 15.1734014,17.2408122 L12.7071068,19.7071068 C12.3165825,20.0976311 11.6834175,20.0976311 11.2928932,19.7071068 L8.82659859,17.2408122 Z M12,14 C13.6568542,14 15,12.6568542 15,11 C15,9.34314575 13.6568542,8 12,8 C10.3431458,8 9,9.34314575 9,11 C9,12.6568542 10.3431458,14 12,14 Z M12,12 C11.4477153,12 11,11.5522847 11,11 C11,10.4477153 11.4477153,10 12,10 C12.5522847,10 13,10.4477153 13,11 C13,11.5522847 12.5522847,12 12,12 Z" id="path-1"></path>
    </defs>
    <g id="Page-1" stroke="none" stroke-width="1" fill="none" fill-rule="evenodd">
        <g id="A4" transform="translate(-69.000000, -148.000000)">
            <g id="icon/small/location" transform="translate(64.000000, 144.000000)">
                <mask id="mask-2" fill="white">
                    <use xlink:href="#path-1"></use>
                </mask>
                <use id="icon_small_location" fill="#889399" fill-rule="nonzero" xlink:href="#path-1"></use>
                <g id="colour/icon/grey" mask="url(#mask-2)" fill="#889399" fill-rule="evenodd">
                    <rect id="Rectangle-6" x="0" y="0" width="24" height="24"></rect>
                </g>
            </g>
        </g>
    </g>
</svg>