<?xml version="1.0" encoding="UTF-8"?>
<svg width="60px" height="60px" viewBox="0 0 60 60" version="1.1" xmlns="http://www.w3.org/2000/svg" xmlns:xlink="http://www.w3.org/1999/xlink">
    <title>sliders</title>
    <g id="Drawer" stroke="none" stroke-width="1" fill="none" fill-rule="evenodd">
        <g id="sliders" transform="translate(-30.000000, -30.000000)">
            <g transform="translate(30.000000, 30.000000)">
                <circle id="Oval" cx="30" cy="30" r="30"></circle>
                <path d="M29.5091301,36.9994218 C29.4376787,37.3215435 29.4,37.6563716 29.4,38 C29.4,38.3433217 29.4376115,38.6778587 29.5089388,38.9997155 L19,39 C18.4477153,39 18,38.5522847 18,38 C18,37.4477153 18.4477153,37 19,37 Z M36.8289758,36.9990993 C36.9397302,37.3121327 37,37.649028 37,38 C37,38.3506022 36.9398572,38.6871573 36.8293257,38.9999111 L31.1706743,38.9999111 C31.0601428,38.6871573 31,38.3506022 31,38 C31,37.649028 31.0602698,37.3121327 31.1710242,36.9990993 Z M41,37 C41.5522847,37 42,37.4477153 42,38 C42,38.5522847 41.5522847,39 41,39 L38.4910612,38.9997155 C38.5623885,38.6778587 38.6,38.3433217 38.6,38 C38.6,37.6563716 38.5623213,37.3215435 38.4908699,36.9994218 L41,37 Z M21.5091301,28.9994218 C21.4376787,29.3215435 21.4,29.6563716 21.4,30 C21.4,30.3433217 21.4376115,30.6778587 21.5089388,30.9997155 L19,31 C18.4477153,31 18,30.5522847 18,30 C18,29.4477153 18.4477153,29 19,29 Z M28.8289758,28.9990993 C28.9397302,29.3121327 29,29.649028 29,30 C29,30.3506022 28.9398572,30.6871573 28.8293257,30.9999111 L23.1706743,30.9999111 C23.0601428,30.6871573 23,30.3506022 23,30 C23,29.649028 23.0602698,29.3121327 23.1710242,28.9990993 Z M41,29 C41.5522847,29 42,29.4477153 42,30 C42,30.5522847 41.5522847,31 41,31 L30.4910612,30.9997155 C30.5623885,30.6778587 30.6,30.3433217 30.6,30 C30.6,29.6563716 30.5623213,29.3215435 30.4908699,28.9994218 L41,29 Z M27.5093234,20.9985505 C27.4377467,21.3209397 27.4,21.6560617 27.4,22 C27.4,22.3433217 27.4376115,22.6778587 27.5089388,22.9997155 L19,23 C18.4477153,23 18,22.5522847 18,22 C18,21.4477153 18.4477153,21 19,21 Z M34.8286475,20.998172 C34.9396111,21.3114674 35,21.6486814 35,22 C35,22.3506022 34.9398572,22.6871573 34.8293257,22.9999111 L29.1706743,22.9999111 C29.0601428,22.6871573 29,22.3506022 29,22 C29,21.6486814 29.0603889,21.3114674 29.1713525,20.998172 Z M41,21 C41.5522847,21 42,21.4477153 42,22 C42,22.5522847 41.5522847,23 41,23 L36.4910612,22.9997155 C36.5623885,22.6778587 36.6,22.3433217 36.6,22 C36.6,21.6560617 36.5622533,21.3209397 36.4906766,20.9985505 L41,21 Z" id="Combined-Shape" fill="#FFFFFF" fill-rule="nonzero"></path>
                <path d="M32,25 C33.6568542,25 35,23.6568542 35,22 C35,20.3431458 33.6568542,19 32,19 C30.3431458,19 29,20.3431458 29,22 C29,23.6568542 30.3431458,25 32,25 Z M26,33 C27.6568542,33 29,31.6568542 29,30 C29,28.3431458 27.6568542,27 26,27 C24.3431458,27 23,28.3431458 23,30 C23,31.6568542 24.3431458,33 26,33 Z M34,41 C35.6568542,41 37,39.6568542 37,38 C37,36.3431458 35.6568542,35 34,35 C32.3431458,35 31,36.3431458 31,38 C31,39.6568542 32.3431458,41 34,41 Z" id="Combined-Shape" fill="#FFFFFF"></path>
                <path d="M30,4.42857143 C44.12271,4.42857143 55.5714286,15.87729 55.5714286,30 C55.5714286,44.12271 44.12271,55.5714286 30,55.5714286 C15.87729,55.5714286 4.42857143,44.12271 4.42857143,30 C4.42857143,15.87729 15.87729,4.42857143 30,4.42857143 Z M30,6.42857143 C16.9818595,6.42857143 6.42857143,16.9818595 6.42857143,30 C6.42857143,43.0181405 16.9818595,53.5714286 30,53.5714286 C43.0181405,53.5714286 53.5714286,43.0181405 53.5714286,30 C53.5714286,16.9818595 43.0181405,6.42857143 30,6.42857143 Z" id="Combined-Shape" fill="#FFFFFF" fill-rule="nonzero"></path>
            </g>
        </g>
    </g>
</svg>