<?xml version="1.0" encoding="UTF-8"?>
<svg width="16px" height="16px" viewBox="0 0 16 16" version="1.1" xmlns="http://www.w3.org/2000/svg" xmlns:xlink="http://www.w3.org/1999/xlink">
    <!-- Generator: Sketch 55 (78076) - https://sketchapp.com -->
    <title>icon_date</title>
    <desc>Created with Sketch.</desc>
    <defs>
        <path d="M6,8 L6,18 L18,18 L18,8 L6,8 Z M18,6 L19,6 C19.5522847,6 20,6.44771525 20,7 L20,19 C20,19.5522847 19.5522847,20 19,20 L5,20 C4.44771525,20 4,19.5522847 4,19 L4,7 C4,6.44771525 4.44771525,6 5,6 L6,6 L6,5 C6,4.44771525 6.44771525,4 7,4 C7.55228475,4 8,4.44771525 8,5 L8,6 L16,6 L16,5 C16,4.44771525 16.4477153,4 17,4 C17.5522847,4 18,4.44771525 18,5 L18,6 Z M6,12 L18,12 L18,10 L6,10 L6,12 Z M15.5,17 C16.3284271,17 17,16.3284271 17,15.5 C17,14.6715729 16.3284271,14 15.5,14 C14.6715729,14 14,14.6715729 14,15.5 C14,16.3284271 14.6715729,17 15.5,17 Z" id="path-1"></path>
    </defs>
    <g id="Page-1" stroke="none" stroke-width="1" fill="none" fill-rule="evenodd">
        <g id="A4" transform="translate(-68.000000, -84.000000)">
            <g id="icon/small/event" transform="translate(64.000000, 80.000000)">
                <mask id="mask-2" fill="white">
                    <use xlink:href="#path-1"></use>
                </mask>
                <use id="icon_small_event" fill="#889399" fill-rule="nonzero" xlink:href="#path-1"></use>
                <g id="colour/icon/grey" mask="url(#mask-2)" fill="#889399" fill-rule="evenodd">
                    <rect id="Rectangle-6" x="0" y="0" width="24" height="24"></rect>
                </g>
            </g>
        </g>
    </g>
</svg>