<?xml version="1.0" encoding="UTF-8"?>
<svg width="16px" height="12px" viewBox="0 0 16 12" version="1.1" xmlns="http://www.w3.org/2000/svg" xmlns:xlink="http://www.w3.org/1999/xlink">
    <!-- Generator: Sketch 55 (78076) - https://sketchapp.com -->
    <title>icon_event</title>
    <desc>Created with Sketch.</desc>
    <defs>
        <path d="M13,8 L6,8 L6,9.12123619 C7.27307126,9.45721058 8,10.4770606 8,12 C8,13.5229394 7.27307126,14.5427894 6,14.8787638 L6,16 L18,16 L18,14.8787638 C16.7269287,14.5427894 16,13.5229394 16,12 C16,10.4770606 16.7269287,9.45721058 18,9.12123619 L18,8 L15,8 L15,9 L13,9 L13,8 Z M6,6 L18,6 C19.1045695,6 20,6.8954305 20,8 L20,10 C20,10.5522847 19.5522847,11 19,11 C18.2189514,11 18,11.2189514 18,12 C18,12.7810486 18.2189514,13 19,13 C19.5522847,13 20,13.4477153 20,14 L20,16 C20,17.1045695 19.1045695,18 18,18 L6,18 C4.8954305,18 4,17.1045695 4,16 L4,14 C4,13.4477153 4.44771525,13 5,13 C5.78104858,13 6,12.7810486 6,12 C6,11.2189514 5.78104858,11 5,11 C4.44771525,11 4,10.5522847 4,10 L4,8 C4,6.8954305 4.8954305,6 6,6 Z M13,11 L15,11 L15,13 L13,13 L13,11 Z M13,15 L15,15 L15,17 L13,17 L13,15 Z" id="path-1"></path>
    </defs>
    <g id="Page-1" stroke="none" stroke-width="1" fill="none" fill-rule="evenodd">
        <g id="A4" transform="translate(-68.000000, -54.000000)">
            <g id="icon/small/ticket" transform="translate(64.000000, 48.000000)">
                <mask id="mask-2" fill="white">
                    <use xlink:href="#path-1"></use>
                </mask>
                <use id="icon_ticket" fill="#889399" fill-rule="nonzero" xlink:href="#path-1"></use>
                <g id="colour/icon/grey" mask="url(#mask-2)" fill="#889399" fill-rule="evenodd">
                    <rect id="Rectangle-6" x="0" y="0" width="24" height="24"></rect>
                </g>
            </g>
        </g>
    </g>
</svg>