<svg xmlns="http://www.w3.org/2000/svg" width="31.999" height="32" viewBox="0 0 31.999 32">
  <path id="Facebook" d="M16-32c-.321,0-.646.01-.967.029a16.078,16.078,0,0,0-5.97,1.55,16.118,16.118,0,0,0-5.692,4.6A16.048,16.048,0,0,0,.32-19.191,16.074,16.074,0,0,0,1.589-9.045,16.117,16.117,0,0,0,6.184-3.367,16.035,16.035,0,0,0,12.809-.32,16.013,16.013,0,0,0,15.995,0a16.082,16.082,0,0,0,6.961-1.589,16.076,16.076,0,0,0,7.456-7.456,15.862,15.862,0,0,0,1.454-4.885,15.936,15.936,0,0,0-1.454-9.023,16.077,16.077,0,0,0-7.456-7.457A16.041,16.041,0,0,0,16-32ZM12.127-18.1h1.7v-1.184a7.178,7.178,0,0,1,.206-2.273,4.727,4.727,0,0,1,3.163-3.276A9.015,9.015,0,0,1,19.831-25l1.741,0-.007,1.741-.012,1.745-1.7.019-.32,0c-1.5.016-1.5.016-1.657.273l-.03.048c-.21.337-.225.456-.225,1.822V-18.1h3.948v3.283H17.624v9.814h-3.8v-9.814H10.429V-18.1Z" transform="translate(-0.002 32)" fill="#3b5998"/>
</svg>
