<?xml version="1.0" encoding="UTF-8"?>
<svg width="14px" height="16px" viewBox="0 0 14 16" version="1.1" xmlns="http://www.w3.org/2000/svg" xmlns:xlink="http://www.w3.org/1999/xlink">
    <!-- Generator: Sketch 55.2 (78181) - https://sketchapp.com -->
    <title>Combined Shape</title>
    <desc>Created with Sketch.</desc>
    <defs>
        <path d="M11,6 C10.4477153,6 10,5.55228475 10,5 C10,4.44771525 10.4477153,4 11,4 L13,4 C13.5522847,4 14,4.44771525 14,5 C14,5.55228475 13.5522847,6 13,6 L13,6.07088886 C16.3922941,6.55611852 19,9.47352809 19,13 C19,16.8659932 15.8659932,20 12,20 C8.13400675,20 5,16.8659932 5,13 C5,9.47352809 7.60770586,6.55611852 11,6.07088886 L11,6 Z M12,18 C14.7614237,18 17,15.7614237 17,13 C17,10.2385763 14.7614237,8 12,8 C9.23857625,8 7,10.2385763 7,13 C7,15.7614237 9.23857625,18 12,18 Z M13,10 L13,12 L15,12 C15.5522847,12 16,12.4477153 16,13 C16,13.5522847 15.5522847,14 15,14 L12,14 C11.4477153,14 11,13.5522847 11,13 L11,10 C11,9.44771525 11.4477153,9 12,9 C12.5522847,9 13,9.44771525 13,10 Z" id="path-1"></path>
    </defs>
    <g id="Master-Icons" stroke="none" stroke-width="1" fill="none" fill-rule="evenodd">
        <g id="icon/small/duration" transform="translate(-5.000000, -4.000000)">
            <mask id="mask-2" fill="white">
                <use xlink:href="#path-1"></use>
            </mask>
            <use id="Combined-Shape" fill="#889399" xlink:href="#path-1"></use>
        </g>
    </g>
</svg>