<svg width="16" height="16" viewBox="0 0 19 19" fill="none" xmlns="http://www.w3.org/2000/svg">
<path d="M16.6249 2.375L11.479 16.625C11.4443 16.7008 11.3885 16.765 11.3184 16.8101C11.2482 16.8551 11.1666 16.879 11.0832 16.879C10.9998 16.879 10.9182 16.8551 10.848 16.8101C10.7779 16.765 10.7221 16.7008 10.6874 16.625L7.91654 11.0833L2.37487 8.3125C2.29908 8.27777 2.23485 8.222 2.18982 8.15183C2.14479 8.08166 2.12085 8.00004 2.12085 7.91667C2.12085 7.83329 2.14479 7.75167 2.18982 7.6815C2.23485 7.61133 2.29908 7.55557 2.37487 7.52083L16.6249 2.375Z" stroke="#929CA2" stroke-width="2" stroke-linecap="round" stroke-linejoin="round"/>
</svg>
